<?xml version="1.0" encoding="UTF-8" standalone="no"?>
<!-- Chrome Web Store small promo tile, 440x280. -->
<svg xmlns="http://www.w3.org/2000/svg" viewBox="0 0 440 280" width="440" height="280">
  <rect width="440" height="280" fill="#1e293b"/>

  <!-- Icon block on the left: miniature of icons/icon.svg at 160x160. -->
  <g transform="translate(40,60) scale(0.625)">
    <g transform="translate(0,-796.36218)">
      <polygon fill="#4063D8" points="127.669,925.848 128.02596,805.31213 247.31168,925.31213"/>
      <polygon fill="#CB3C33" points="127.669,925.848 247.31168,925.31213 127.31168,1046.0264"/>
      <polygon fill="#389826" points="127.669,925.848 127.31168,1046.0264 8.0259779,926.7407"/>
      <polygon fill="#9558B2" points="127.669,925.848 8.0259779,926.7407 128.02596,805.31213"/>
      <path fill="#d0d0cf" stroke="#000" stroke-width="2" stroke-linejoin="round" d="m 26.24294,816.92274 -5,5 0,19.28572 5.446429,5.26785 7.232142,0.17858 0.178571,168.12501 7.142857,7.1429 22.142858,0 177.142853,-180.00006 0,-18.57143 -5,-5 -80,-0.71428 -5,7.14285 0,15.71429 5,6.42857 6.42857,0 -62.142855,60.00001 0.625005,-59.73215 7.14285,-10e-6 5.80357,-5.98214 0,-15.71429 -6.42857,-7.14286 -80.71428,-1.42857 0,10e-6 z"/>
      <path fill="#d0d0cf" stroke="#000" stroke-width="2" stroke-linejoin="round" d="m 136.90826,933.24978 4.28572,-3.57143 12.14285,0.35715 3.92857,3.92857 -4.28571,12.14286 -3.57143,3.21428 -12.64794,-0.14794 -3.42349,-4.13777 3.57143,-11.78572 z"/>
      <path fill="#d0d0cf" stroke="#000" stroke-width="2" stroke-linejoin="round" d="m 121.90826,956.10693 28.57143,0.35714 -15,45.00003 5.35714,0 -3.21428,8.9285 -26.78572,-0.3571 14.64286,-43.21429 -7.14286,0.35714 3.57143,-11.07142 z"/>
      <path fill="#d0d0cf" stroke="#000" stroke-width="2" stroke-linejoin="round" d="m 157.2654,956.46407 -3.71936,9.68618 6.82905,0 -15.25254,44.24235 23.57143,0 3.40554,-8.7193 -6.11475,-0.4005 8.42349,-26.2373 15,-0.35715 -11.07143,34.99995 23.15301,0.3572 2.91579,-8.2576 -5.56371,-0.1633 9.13777,-26.5791 12.85714,0 -11.07143,35 24.32904,0.2525 3.00508,-8.2729 -5.81626,-0.1939 11.69643,-37.14285 -4.64286,-7.5 -14.64285,0 -5.71429,5.71429 -5.71429,0 -6.07142,-6.07143 -12.5,0 -5.35715,5.35714 -6.07143,0 -6.07142,-5.71428 -18.92858,0 z"/>
    </g>
  </g>

  <!-- Text block on the right. -->
  <g font-family="'Helvetica Neue', Arial, sans-serif" fill="#f3f4f6">
    <text x="210" y="108" font-size="24" font-weight="700">Vim Keybindings</text>
    <text x="210" y="138" font-size="24" font-weight="700">for Pluto</text>
    <text x="210" y="176" font-size="13" fill="#9ca3af">Modal editing in Julia's</text>
    <text x="210" y="194" font-size="13" fill="#9ca3af">Pluto notebooks.</text>
    <text x="210" y="232" font-size="11" fill="#6b7280" font-family="'JetBrains Mono', monospace">h j k l · d c y · / n N · :w</text>
  </g>
</svg>
